<svg width="250" height="375" viewBox="0 0 250 375" fill="none" xmlns="http://www.w3.org/2000/svg">
<rect width="250" height="374.897" fill="#8D8D8D"/>
<path d="M84.8379 202.872L106.076 181.645C106.936 180.786 107.957 180.104 109.081 179.639C110.205 179.173 111.409 178.934 112.625 178.934C113.842 178.934 115.046 179.173 116.17 179.639C117.294 180.104 118.315 180.786 119.175 181.645L140.413 202.872M134.238 196.701L140.038 190.903C140.899 190.043 141.92 189.362 143.043 188.896C144.167 188.431 145.372 188.192 146.588 188.192C147.804 188.192 149.009 188.431 150.133 188.896C151.257 189.362 152.278 190.043 153.138 190.903L165.113 202.872M91.0129 218.302H158.938C160.576 218.302 162.147 217.652 163.305 216.494C164.463 215.337 165.113 213.767 165.113 212.13V162.756C165.113 161.119 164.463 159.549 163.305 158.391C162.147 157.234 160.576 156.584 158.938 156.584H91.0129C89.3752 156.584 87.8046 157.234 86.6465 158.391C85.4885 159.549 84.8379 161.119 84.8379 162.756V212.13C84.8379 213.767 85.4885 215.337 86.6465 216.494C87.8046 217.652 89.3752 218.302 91.0129 218.302ZM134.238 172.013H134.271V172.046H134.238V172.013ZM135.782 172.013C135.782 172.423 135.619 172.815 135.33 173.104C135.04 173.394 134.647 173.556 134.238 173.556C133.829 173.556 133.436 173.394 133.146 173.104C132.857 172.815 132.694 172.423 132.694 172.013C132.694 171.604 132.857 171.212 133.146 170.922C133.436 170.633 133.829 170.47 134.238 170.47C134.647 170.47 135.04 170.633 135.33 170.922C135.619 171.212 135.782 171.604 135.782 172.013Z" stroke="#C0C0C0" stroke-width="8" stroke-linecap="round" stroke-linejoin="round"/>
</svg>
